<svg width="50" height="50" viewBox="0 0 50 50" fill="none" xmlns="http://www.w3.org/2000/svg">
<path d="M0.374298 12.4283C0.374298 5.82267 5.72926 0.467712 12.3349 0.467712H37.2931C43.8987 0.467712 49.2537 5.82267 49.2537 12.4283V37.3865C49.2537 43.9922 43.8987 49.3471 37.2931 49.3471H12.3349C5.72926 49.3471 0.374298 43.9922 0.374298 37.3865V12.4283Z" fill="#FF9B53"/>
<path d="M29.0045 13.9554C28.5119 13.4677 27.8441 13.1938 27.1477 13.1938C26.4514 13.1938 25.7836 13.4677 25.291 13.9554L13.7583 25.3815C13.5144 25.6232 13.321 25.91 13.189 26.2257C13.057 26.5414 12.989 26.8798 12.989 27.2215C12.989 27.5632 13.057 27.9016 13.189 28.2173C13.321 28.533 13.5144 28.8199 13.7583 29.0615L15.1265 30.4158C15.7219 31.0067 16.5589 30.9015 17.0644 30.6031C17.3432 30.4391 17.6693 30.3718 17.991 30.4117C18.3128 30.4517 18.612 30.5967 18.8413 30.8239C19.0706 31.0511 19.217 31.3474 19.2573 31.6662C19.2977 31.985 19.2297 32.3079 19.0641 32.5842C18.7641 33.0849 18.6567 33.9142 19.2533 34.504L20.6226 35.8594C20.8665 36.101 21.1561 36.2927 21.4748 36.4235C21.7934 36.5542 22.135 36.6215 22.4799 36.6215C22.8249 36.6215 23.1664 36.5542 23.4851 36.4235C23.8038 36.2927 24.0933 36.101 24.3372 35.8594L35.8687 24.4355C36.1126 24.1939 36.3061 23.907 36.4381 23.5913C36.5701 23.2756 36.6381 22.9373 36.6381 22.5955C36.6381 22.2538 36.5701 21.9154 36.4381 21.5997C36.3061 21.284 36.1126 20.9972 35.8687 20.7556L34.5017 19.4001C33.9064 18.8103 33.0682 18.9144 32.5627 19.2128C32.2839 19.3768 31.9578 19.4441 31.6361 19.4042C31.3143 19.3642 31.0151 19.2191 30.7858 18.992C30.5565 18.7648 30.4101 18.4685 30.3698 18.1497C30.3294 17.8309 30.3974 17.5079 30.5629 17.2317C30.8641 16.7309 30.9704 15.9017 30.3738 15.3119L29.0056 13.9554H29.0045Z" fill="white"/>
</svg>
