<svg width="49" height="50" viewBox="0 0 49 50" fill="none" xmlns="http://www.w3.org/2000/svg">
<path d="M0.0796585 12.4283C0.0796585 5.82267 5.43462 0.467712 12.0403 0.467712H36.9984C43.6041 0.467712 48.9591 5.82267 48.9591 12.4283V37.3865C48.9591 43.9922 43.6041 49.3471 36.9984 49.3471H12.0403C5.43462 49.3471 0.0796585 43.9922 0.0796585 37.3865V12.4283Z" fill="#FDBF00"/>
<path d="M14.4581 30.8678C14.4581 31.9641 14.9486 32.9484 15.7157 33.6336V35.2284C15.7157 36.2625 16.5584 37.0972 17.6022 37.0972C18.646 37.0972 19.4887 36.2625 19.4887 35.2284V34.6055H29.5497V35.2284C29.5497 36.25 30.3923 37.0972 31.4362 37.0972C32.4674 37.0972 33.3226 36.2625 33.3226 35.2284V33.6336C34.0898 32.9484 34.5803 31.9641 34.5803 30.8678V18.4088C34.5803 14.0481 30.0779 13.4252 24.5192 13.4252C18.9604 13.4252 14.4581 14.0481 14.4581 18.4088V30.8678ZM18.8598 32.1137C17.816 32.1137 16.9734 31.2789 16.9734 30.2448C16.9734 29.2107 17.816 28.376 18.8598 28.376C19.9037 28.376 20.7463 29.2107 20.7463 30.2448C20.7463 31.2789 19.9037 32.1137 18.8598 32.1137ZM30.1785 32.1137C29.1347 32.1137 28.2921 31.2789 28.2921 30.2448C28.2921 29.2107 29.1347 28.376 30.1785 28.376C31.2224 28.376 32.065 29.2107 32.065 30.2448C32.065 31.2789 31.2224 32.1137 30.1785 32.1137ZM32.065 24.6383H16.9734V18.4088H32.065V24.6383Z" fill="white"/>
</svg>
