<svg width="89" height="19" viewBox="0 0 89 19" fill="none" xmlns="http://www.w3.org/2000/svg">
<line x1="4.53864" y1="9.02784" x2="81.9477" y2="9.02785" stroke="#CCCCCC" stroke-width="0.74754" stroke-dasharray="2.24 2.24"/>
<path d="M43.8445 16.4423H42.8238C42.7212 16.4422 42.6203 16.4187 42.5302 16.3738C42.4402 16.329 42.3639 16.2642 42.3083 16.1854C42.2528 16.1066 42.2197 16.0164 42.2121 15.9229C42.2046 15.8294 42.2228 15.7357 42.2651 15.6503L44.7367 10.6658L41.0254 10.5904L39.6719 12.0891C39.4138 12.3856 39.2079 12.5177 38.6826 12.5177H37.9955C37.8867 12.5209 37.7787 12.5001 37.6805 12.457C37.5824 12.4139 37.4971 12.3499 37.4318 12.2703C37.3406 12.1578 37.2508 11.9672 37.3383 11.6953L38.0982 9.20736C38.104 9.18879 38.1109 9.17021 38.1186 9.15199C38.1189 9.15026 38.1189 9.14847 38.1186 9.14674C38.1106 9.12853 38.1039 9.10993 38.0982 9.09102L37.3375 6.58735C37.2551 6.32069 37.3452 6.13427 37.4357 6.02459C37.4964 5.95091 37.5753 5.89128 37.6658 5.8505C37.7564 5.80973 37.8562 5.78894 37.9571 5.78982H38.6826C39.0749 5.78982 39.4556 5.95065 39.6795 6.21031L41.0051 7.68378L44.7367 7.63332L42.2659 2.65751C42.2235 2.57217 42.2052 2.47848 42.2127 2.38502C42.2202 2.29155 42.2532 2.20129 42.3086 2.12249C42.3641 2.04368 42.4404 1.97885 42.5304 1.93391C42.6203 1.88897 42.7212 1.86536 42.8238 1.86523H43.8556C43.9996 1.86788 44.141 1.90012 44.2695 1.95957C44.3979 2.01902 44.51 2.10415 44.5976 2.20864L49.3925 7.53486L51.6076 7.48159C51.7698 7.47353 52.2192 7.47073 52.3231 7.47073C54.442 7.47178 55.7074 8.10042 55.7074 9.15375C55.7074 9.48523 55.5624 10.0999 54.5927 10.4909C54.0202 10.7222 53.2564 10.8392 52.3224 10.8392C52.2196 10.8392 51.7713 10.8364 51.6069 10.8284L49.3921 10.7744L44.5853 16.1006C44.4977 16.2046 44.3857 16.2893 44.2574 16.3485C44.1292 16.4076 43.9881 16.4397 43.8445 16.4423Z" fill="#1262AE"/>
<circle cx="4.73214" cy="9.40158" r="2.99016" fill="white" stroke="#1262AE" stroke-width="1.49508"/>
<circle cx="84.981" cy="9.08987" r="2.99016" fill="white" stroke="#1262AE" stroke-width="1.49508"/>
</svg>
