<svg width="19" height="19" viewBox="0 0 19 19" fill="none" xmlns="http://www.w3.org/2000/svg">
<path d="M17.0267 14.679C16.5461 14.2506 16.1254 13.7594 15.7758 13.2188C15.3941 12.4725 15.1654 11.6575 15.103 10.8217V8.35978C15.1063 7.0469 14.6301 5.77801 13.7638 4.79151C12.8975 3.805 11.7008 3.16879 10.3985 3.00241V2.35952C10.3985 2.18307 10.3284 2.01385 10.2036 1.88908C10.0788 1.76431 9.90962 1.69421 9.73317 1.69421C9.55672 1.69421 9.38749 1.76431 9.26272 1.88908C9.13795 2.01385 9.06786 2.18307 9.06786 2.35952V3.01238C7.77724 3.19075 6.59498 3.83081 5.74008 4.814C4.88517 5.79719 4.41554 7.05689 4.41816 8.35978V10.8217C4.35575 11.6575 4.12701 12.4725 3.74538 13.2188C3.40195 13.7582 2.98797 14.2493 2.51443 14.679C2.46127 14.7257 2.41866 14.7832 2.38945 14.8476C2.36023 14.9121 2.34508 14.982 2.34499 15.0527V15.7305C2.34499 15.8627 2.39749 15.9894 2.49095 16.0829C2.58441 16.1764 2.71117 16.2289 2.84335 16.2289H16.6977C16.8299 16.2289 16.9567 16.1764 17.0501 16.0829C17.1436 15.9894 17.1961 15.8627 17.1961 15.7305V15.0527C17.196 14.982 17.1809 14.9121 17.1516 14.8476C17.1224 14.7832 17.0798 14.7257 17.0267 14.679ZM3.38157 15.2322C3.84525 14.7842 4.2535 14.2823 4.59757 13.7371C5.0783 12.8358 5.35878 11.8413 5.41987 10.8217V8.35978C5.4001 7.77572 5.49807 7.19365 5.70794 6.64824C5.91781 6.10283 6.23529 5.60523 6.64147 5.18507C7.04765 4.76492 7.53423 4.43079 8.07223 4.20259C8.61022 3.9744 9.18864 3.8568 9.77304 3.8568C10.3574 3.8568 10.9359 3.9744 11.4738 4.20259C12.0118 4.43079 12.4984 4.76492 12.9046 5.18507C13.3108 5.60523 13.6283 6.10283 13.8381 6.64824C14.048 7.19365 14.146 7.77572 14.1262 8.35978V10.8217C14.1873 11.8413 14.4678 12.8358 14.9485 13.7371C15.2926 14.2823 15.7008 14.7842 16.1645 15.2322H3.38157Z" fill="#424242"/>
<path d="M9.7956 17.8638C10.1095 17.8566 10.4108 17.7385 10.6461 17.5306C10.8814 17.3227 11.0356 17.0382 11.0814 16.7275H8.45999C8.50707 17.0466 8.66847 17.3378 8.91415 17.5468C9.15983 17.7558 9.47307 17.8685 9.7956 17.8638Z" fill="#424242"/>
<circle cx="14.6221" cy="4.87421" r="2.61639" fill="#F99A0E" stroke="white" stroke-width="0.74754"/>
</svg>
