<svg width="98" height="23" viewBox="0 0 98 23" fill="none" xmlns="http://www.w3.org/2000/svg">
<g clip-path="url(#clip0_1038_1495)">
<path d="M12.0065 0.714294C6.06133 0.714294 1.24194 5.53368 1.24194 11.4789C1.24194 17.424 6.06133 22.2434 12.0065 22.2434C17.9517 22.2434 22.7711 17.424 22.7711 11.4789C22.7711 5.53368 17.9517 0.714294 12.0065 0.714294ZM14.5564 8.15306H12.9383C12.7466 8.15306 12.5335 8.40536 12.5335 8.74063V9.90903H14.5575L14.2514 11.5753H12.5335V16.5775H10.6239V11.5753H8.89152V9.90903H10.6239V8.92901C10.6239 7.52288 11.5995 6.38027 12.9383 6.38027H14.5564V8.15306Z" fill="white"/>
</g>
<g clip-path="url(#clip1_1038_1495)">
<path d="M86.7605 0.714233C80.8153 0.714233 75.9959 5.53362 75.9959 11.4788C75.9959 17.424 80.8153 22.2434 86.7605 22.2434C92.7057 22.2434 97.5251 17.424 97.5251 11.4788C97.5251 5.53362 92.7057 0.714233 86.7605 0.714233ZM91.1392 9.53221C91.1437 9.62416 91.1448 9.71611 91.1448 9.80581C91.1448 12.6091 89.0132 15.8396 85.1133 15.8396C83.9609 15.8415 82.8325 15.5105 81.8637 14.8865C82.0286 14.9066 82.1979 14.9145 82.3694 14.9145C83.3629 14.9145 84.2768 14.577 85.0023 14.0074C84.5602 13.9987 84.1318 13.8523 83.7768 13.5886C83.4218 13.3249 83.158 12.957 83.022 12.5362C83.3395 12.5966 83.6666 12.5839 83.9785 12.4992C83.4986 12.4022 83.0671 12.1421 82.7571 11.7632C82.447 11.3843 82.2776 10.9099 82.2775 10.4203V10.3945C82.5634 10.5526 82.8908 10.649 83.2384 10.6602C82.7886 10.3608 82.4701 9.90075 82.3482 9.37425C82.2262 8.84776 82.3101 8.29457 82.5825 7.82782C83.1151 8.48266 83.7792 9.01837 84.532 9.40024C85.2847 9.78212 86.1093 10.0017 86.9522 10.0446C86.8451 9.58974 86.8912 9.11217 87.0834 8.68619C87.2757 8.2602 87.6033 7.90966 88.0153 7.68907C88.4273 7.46848 88.9007 7.3902 89.3618 7.46639C89.8229 7.54258 90.2459 7.76898 90.5651 8.11039C91.0396 8.01651 91.4946 7.84246 91.9107 7.59571C91.7525 8.08699 91.4214 8.50417 90.9789 8.76972C91.3992 8.7191 91.8096 8.6061 92.1966 8.43445C91.9123 8.86043 91.5542 9.23219 91.1392 9.53221Z" fill="white"/>
</g>
<g clip-path="url(#clip2_1038_1495)">
<path d="M52.7474 11.4788C52.7474 12.371 52.393 13.2266 51.7621 13.8575C51.1313 14.4883 50.2756 14.8427 49.3835 14.8427C48.4913 14.8427 47.6357 14.4883 47.0048 13.8575C46.374 13.2266 46.0195 12.371 46.0195 11.4788C46.0195 11.2871 46.0397 11.0998 46.0745 10.9181H44.8982V15.4C44.8982 15.7117 45.1505 15.964 45.4622 15.964H53.3058C53.4552 15.9637 53.5984 15.9042 53.7039 15.7984C53.8094 15.6927 53.8687 15.5494 53.8687 15.4V10.9181H52.6925C52.7272 11.0998 52.7474 11.2871 52.7474 11.4788ZM49.3835 13.7214C49.678 13.7213 49.9697 13.6633 50.2419 13.5505C50.514 13.4377 50.7612 13.2724 50.9695 13.064C51.1777 12.8557 51.3429 12.6083 51.4556 12.3362C51.5682 12.064 51.6262 11.7723 51.6261 11.4777C51.626 11.1831 51.5679 10.8914 51.4551 10.6193C51.3423 10.3472 51.177 10.0999 50.9687 9.89168C50.7603 9.68343 50.513 9.51826 50.2408 9.4056C49.9686 9.29294 49.6769 9.23499 49.3823 9.23506C48.7874 9.23521 48.2169 9.47169 47.7963 9.89247C47.3758 10.3133 47.1396 10.8839 47.1397 11.4788C47.1399 12.0737 47.3764 12.6442 47.7971 13.0648C48.2179 13.4854 48.7885 13.7216 49.3835 13.7214ZM52.0746 9.12405H53.4191C53.5084 9.12405 53.5941 9.08865 53.6573 9.02559C53.7206 8.96254 53.7563 8.87698 53.7566 8.78766V7.44321C53.7566 7.3537 53.721 7.26785 53.6577 7.20455C53.5944 7.14126 53.5086 7.1057 53.4191 7.1057H52.0746C51.9851 7.1057 51.8992 7.14126 51.836 7.20455C51.7727 7.26785 51.7371 7.3537 51.7371 7.44321V8.78766C51.7382 8.97268 51.8896 9.12405 52.0746 9.12405ZM49.3835 0.714233C46.5285 0.714233 43.7905 1.84835 41.7718 3.8671C39.753 5.88585 38.6189 8.62386 38.6189 11.4788C38.6189 14.3337 39.753 17.0718 41.7718 19.0905C43.7905 21.1093 46.5285 22.2434 49.3835 22.2434C50.7971 22.2434 52.1969 21.9649 53.5029 21.424C54.8089 20.883 55.9956 20.0901 56.9952 19.0905C57.9948 18.0909 58.7877 16.9042 59.3286 15.5982C59.8696 14.2922 60.148 12.8924 60.148 11.4788C60.148 10.0652 59.8696 8.6654 59.3286 7.35938C58.7877 6.05336 57.9948 4.86669 56.9952 3.8671C55.9956 2.86752 54.8089 2.07461 53.5029 1.53364C52.1969 0.992667 50.7971 0.714233 49.3835 0.714233ZM54.99 15.8396C54.99 16.5247 54.4294 17.0854 53.7442 17.0854H45.0227C44.3376 17.0854 43.7769 16.5247 43.7769 15.8396V7.11803C43.7769 6.43291 44.3376 5.87226 45.0227 5.87226H53.7442C54.4294 5.87226 54.99 6.43291 54.99 7.11803V15.8396Z" fill="white"/>
</g>
<defs>
<clipPath id="clip0_1038_1495">
<rect width="22.4262" height="22.4262" fill="white" transform="translate(0.793335 0.265564)"/>
</clipPath>
<clipPath id="clip1_1038_1495">
<rect width="22.4262" height="22.4262" fill="white" transform="translate(75.5472 0.265503)"/>
</clipPath>
<clipPath id="clip2_1038_1495">
<rect width="22.4262" height="22.4262" fill="white" transform="translate(38.1703 0.265503)"/>
</clipPath>
</defs>
</svg>
