<svg width="22" height="21" viewBox="0 0 22 21" fill="none" xmlns="http://www.w3.org/2000/svg">
<path d="M18.8794 4.23268C18.6438 3.58949 17.9841 3.13162 17.2066 3.13162H14.2614V2.04146C14.2614 1.44187 13.7313 0.951294 13.0833 0.951294H8.37106C7.72312 0.951294 7.19299 1.44187 7.19299 2.04146V3.13162H4.24782C3.4703 3.13162 2.82236 3.58949 2.57497 4.23268L0.254175 10.4139C0.171711 10.6428 0.124588 10.8827 0.124588 11.1334V18.939C0.124588 19.8438 0.913893 20.5742 1.89169 20.5742C2.86948 20.5742 3.65879 19.8438 3.65879 18.939V18.3939H17.7956V18.939C17.7956 19.8329 18.5849 20.5742 19.5627 20.5742C20.5287 20.5742 21.3298 19.8438 21.3298 18.939V11.1334C21.3298 10.8936 21.2827 10.6428 21.2002 10.4139L18.8794 4.23268ZM4.24782 15.1234C3.27003 15.1234 2.48072 14.393 2.48072 13.4882C2.48072 12.5833 3.27003 11.8529 4.24782 11.8529C5.22562 11.8529 6.01492 12.5833 6.01492 13.4882C6.01492 14.393 5.22562 15.1234 4.24782 15.1234ZM17.2066 15.1234C16.2288 15.1234 15.4395 14.393 15.4395 13.4882C15.4395 12.5833 16.2288 11.8529 17.2066 11.8529C18.1844 11.8529 18.9737 12.5833 18.9737 13.4882C18.9737 14.393 18.1844 15.1234 17.2066 15.1234ZM2.48072 9.67259L4.24782 4.76686H17.2066L18.9737 9.67259H2.48072Z" fill="white"/>
</svg>
