<svg width="14" height="14" viewBox="0 0 14 14" fill="none" xmlns="http://www.w3.org/2000/svg">
<path d="M12.9768 5.49641L9.23977 4.91017L7.56923 1.25452C7.5236 1.15443 7.44853 1.07341 7.35581 1.02416C7.12326 0.900239 6.84066 1.00351 6.72439 1.25452L5.05385 4.91017L1.31685 5.49641C1.21382 5.51229 1.11962 5.56472 1.0475 5.64416C0.96031 5.74089 0.912265 5.87103 0.913921 6.00598C0.915577 6.14093 0.966798 6.26964 1.05633 6.36385L3.7601 9.20925L3.12132 13.2271C3.10634 13.3206 3.11593 13.4167 3.14898 13.5046C3.18204 13.5925 3.23725 13.6686 3.30835 13.7244C3.37945 13.7801 3.4636 13.8132 3.55125 13.82C3.6389 13.8267 3.72655 13.8068 3.80426 13.7625L7.14681 11.8656L10.4894 13.7625C10.5806 13.8149 10.6866 13.8324 10.7881 13.8134C11.0442 13.7657 11.2164 13.5036 11.1723 13.2271L10.5335 9.20925L13.2373 6.36385C13.3109 6.286 13.3594 6.18432 13.3742 6.07311C13.4139 5.79509 13.2343 5.53771 12.9768 5.49641V5.49641Z" fill="#FDBF00"/>
</svg>
