<svg width="18" height="8" viewBox="0 0 18 8" fill="none" xmlns="http://www.w3.org/2000/svg">
<path d="M7.73706 7.5155H9.4491V6.66751C9.4491 6.44261 9.53928 6.22692 9.69982 6.06789C9.86035 5.90886 10.0781 5.81952 10.3051 5.81952H12.8732C13.1002 5.81952 13.3179 5.90886 13.4785 6.06789C13.639 6.22692 13.7292 6.44261 13.7292 6.66751V7.5155H17.1533V4.12353C17.1533 3.22393 16.7925 2.36117 16.1504 1.72505C15.5082 1.08893 14.6373 0.731567 13.7292 0.731567H3.45697C2.54885 0.731567 1.67792 1.08893 1.03579 1.72505C0.393647 2.36117 0.0328979 3.22393 0.0328979 4.12353V7.5155H3.45697V6.66751C3.45697 6.44261 3.54716 6.22692 3.70769 6.06789C3.86823 5.90886 4.08596 5.81952 4.31299 5.81952H6.88104C7.10807 5.81952 7.32581 5.90886 7.48634 6.06789C7.64687 6.22692 7.73706 6.44261 7.73706 6.66751V7.5155Z" fill="white"/>
</svg>
