<svg width="14" height="14" viewBox="0 0 14 14" fill="none" xmlns="http://www.w3.org/2000/svg">
<path d="M12.7412 5.49637L9.01139 4.91014L7.34406 1.25449C7.29852 1.1544 7.2236 1.07338 7.13105 1.02413C6.89894 0.900208 6.61689 1.00348 6.50084 1.25449L4.83351 4.91014L1.10367 5.49637C1.00084 5.51226 0.906823 5.56469 0.834841 5.64412C0.747819 5.74085 0.699866 5.87099 0.701518 6.00594C0.703171 6.14089 0.754294 6.26961 0.843655 6.36381L3.54224 9.20921L2.90469 13.2271C2.88974 13.3205 2.8993 13.4167 2.93229 13.5046C2.96529 13.5924 3.02039 13.6686 3.09135 13.7243C3.16232 13.78 3.2463 13.8132 3.33379 13.8199C3.42127 13.8267 3.50875 13.8068 3.58631 13.7625L6.92245 11.8655L10.2586 13.7625C10.3497 13.8149 10.4554 13.8324 10.5568 13.8133C10.8124 13.7657 10.9843 13.5035 10.9402 13.2271L10.3027 9.20921L13.0012 6.36381C13.0747 6.28597 13.1232 6.18429 13.1379 6.07308C13.1775 5.79505 12.9983 5.53768 12.7412 5.49637V5.49637Z" fill="#FDBF00"/>
</svg>
