<svg width="25" height="13" viewBox="0 0 25 13" fill="none" xmlns="http://www.w3.org/2000/svg">
<path d="M4.88904 0.211548C3.75394 0.211548 2.66533 0.658256 1.86269 1.4534C1.06005 2.24855 0.609131 3.327 0.609131 4.4515V11.2354C0.609131 11.4603 0.699314 11.676 0.859842 11.8351C1.02037 11.9941 1.23809 12.0834 1.46511 12.0834C1.69213 12.0834 1.90986 11.9941 2.07038 11.8351C2.23091 11.676 2.32109 11.4603 2.32109 11.2354V6.99548H22.8647V11.2354C22.8647 11.4603 22.9548 11.676 23.1154 11.8351C23.2759 11.9941 23.4936 12.0834 23.7206 12.0834C23.9477 12.0834 24.1654 11.9941 24.3259 11.8351C24.4864 11.676 24.5766 11.4603 24.5766 11.2354V4.4515C24.5766 3.327 24.1257 2.24855 23.3231 1.4534C22.5204 0.658256 21.4318 0.211548 20.2967 0.211548H4.88904Z" fill="white"/>
</svg>
