<svg width="13" height="14" viewBox="0 0 13 14" fill="none" xmlns="http://www.w3.org/2000/svg">
<path d="M12.1665 5.49638L8.43672 4.91014L6.76939 1.25449C6.72385 1.1544 6.64893 1.07338 6.55638 1.02413C6.32428 0.900208 6.04223 1.00348 5.92617 1.25449L4.25885 4.91014L0.529024 5.49638C0.426193 5.51226 0.332176 5.56469 0.260194 5.64413C0.173173 5.74086 0.12522 5.871 0.126872 6.00595C0.128525 6.14089 0.179648 6.26961 0.269008 6.36382L2.96758 9.20922L2.33003 13.2271C2.31508 13.3206 2.32465 13.4167 2.35764 13.5046C2.39063 13.5925 2.44573 13.6686 2.5167 13.7243C2.58766 13.7801 2.67165 13.8132 2.75913 13.8199C2.84661 13.8267 2.9341 13.8068 3.01165 13.7625L6.34778 11.8656L9.68391 13.7625C9.77499 13.8149 9.88076 13.8324 9.98212 13.8133C10.2377 13.7657 10.4096 13.5035 10.3655 13.2271L9.72798 9.20922L12.4266 6.36382C12.5 6.28597 12.5485 6.18429 12.5632 6.07308C12.6028 5.79506 12.4236 5.53768 12.1665 5.49638V5.49638Z" fill="#FDBF00"/>
</svg>
