<svg width="20" height="20" viewBox="0 0 20 20" fill="none" xmlns="http://www.w3.org/2000/svg">
<path d="M9.98028 17.8543C7.93752 17.8543 5.97843 17.0428 4.53398 15.5983C3.08953 14.1539 2.27805 12.1948 2.27805 10.152C2.27805 8.10929 3.08953 6.1502 4.53398 4.70575C5.97843 3.2613 7.93752 2.44982 9.98028 2.44982C12.023 2.44982 13.9821 3.2613 15.4266 4.70575C16.871 6.1502 17.6825 8.10929 17.6825 10.152C17.6825 12.1948 16.871 14.1539 15.4266 15.5983C13.9821 17.0428 12.023 17.8543 9.98028 17.8543ZM9.98028 18.9546C12.3149 18.9546 14.5538 18.0272 16.2046 16.3764C17.8554 14.7256 18.7828 12.4866 18.7828 10.152C18.7828 7.81747 17.8554 5.57851 16.2046 3.92771C14.5538 2.27691 12.3149 1.3495 9.98028 1.3495C7.6457 1.3495 5.40674 2.27691 3.75594 3.92771C2.10514 5.57851 1.17773 7.81747 1.17773 10.152C1.17773 12.4866 2.10514 14.7256 3.75594 16.3764C5.40674 18.0272 7.6457 18.9546 9.98028 18.9546V18.9546Z" fill="#1262AF"/>
<path d="M8.01528 6.41423C8.11907 6.36078 8.23561 6.33701 8.35205 6.34551C8.46849 6.35402 8.58033 6.39449 8.67525 6.46246L13.1174 9.63543C13.1997 9.69414 13.2667 9.77164 13.313 9.86148C13.3593 9.95133 13.3834 10.0509 13.3834 10.152C13.3834 10.2531 13.3593 10.3527 13.313 10.4425C13.2667 10.5323 13.1997 10.6098 13.1174 10.6686L8.67525 13.8415C8.58036 13.9094 8.46858 13.9499 8.3522 13.9584C8.23581 13.9669 8.11934 13.9431 8.01558 13.8898C7.91181 13.8364 7.82478 13.7554 7.76405 13.6558C7.70331 13.5561 7.67123 13.4417 7.67133 13.325V6.97902C7.6712 6.86236 7.70324 6.74793 7.76392 6.64829C7.8246 6.54865 7.91157 6.46766 8.01528 6.41423V6.41423Z" fill="#1262AF"/>
</svg>
