<svg width="19" height="20" viewBox="0 0 19 20" fill="none" xmlns="http://www.w3.org/2000/svg">
<g clip-path="url(#clip0_1038_1444)">
<path d="M9.61823 17.8543C7.57548 17.8543 5.61639 17.0428 4.17194 15.5984C2.72749 14.1539 1.91601 12.1948 1.91601 10.1521C1.91601 8.10931 2.72749 6.15021 4.17194 4.70577C5.61639 3.26132 7.57548 2.44984 9.61823 2.44984C11.661 2.44984 13.6201 3.26132 15.0645 4.70577C16.509 6.15021 17.3205 8.10931 17.3205 10.1521C17.3205 12.1948 16.509 14.1539 15.0645 15.5984C13.6201 17.0428 11.661 17.8543 9.61823 17.8543ZM9.61823 18.9546C11.9528 18.9546 14.1918 18.0272 15.8426 16.3764C17.4934 14.7256 18.4208 12.4866 18.4208 10.1521C18.4208 7.81748 17.4934 5.57852 15.8426 3.92772C14.1918 2.27693 11.9528 1.34952 9.61823 1.34952C7.28365 1.34952 5.04469 2.27693 3.3939 3.92772C1.7431 5.57852 0.815689 7.81748 0.815689 10.1521C0.815689 12.4866 1.7431 14.7256 3.3939 16.3764C5.04469 18.0272 7.28365 18.9546 9.61823 18.9546V18.9546Z" fill="#1262AF"/>
<path d="M7.65326 6.41425C7.75706 6.3608 7.87359 6.33702 7.99003 6.34553C8.10648 6.35404 8.21831 6.39451 8.31324 6.46248L12.7554 9.63545C12.8377 9.69415 12.9047 9.77165 12.951 9.8615C12.9972 9.95135 13.0214 10.0509 13.0214 10.152C13.0214 10.2531 12.9972 10.3527 12.951 10.4425C12.9047 10.5324 12.8377 10.6099 12.7554 10.6686L8.31324 13.8415C8.21835 13.9095 8.10656 13.9499 7.99018 13.9584C7.8738 13.9669 7.75732 13.9432 7.65356 13.8898C7.5498 13.8364 7.46277 13.7554 7.40203 13.6558C7.3413 13.5561 7.30922 13.4417 7.30931 13.325V6.97904C7.30919 6.86238 7.34123 6.74794 7.40191 6.6483C7.46258 6.54866 7.54956 6.46768 7.65326 6.41425V6.41425Z" fill="#1262AF"/>
</g>
<defs>
<clipPath id="clip0_1038_1444">
<rect width="18.6885" height="18.6885" fill="white" transform="translate(0.273987 0.807816)"/>
</clipPath>
</defs>
</svg>
